<svg xmlns="http://www.w3.org/2000/svg" viewBox="0 0 44.004 39.363">
  <defs>
    <style>
      .cls-1 {
        fill: #248dbe;
      }
    </style>
  </defs>
  <g id="air-conditioner" transform="translate(0 -26.999)">
    <g id="Group_31" data-name="Group 31" transform="translate(0 26.999)">
      <g id="Group_30" data-name="Group 30" transform="translate(0 0)">
        <path id="Path_30" data-name="Path 30" class="cls-1" d="M39.707,27H4.3A4.3,4.3,0,0,0,0,31.3V49.173a4.3,4.3,0,0,0,4.3,4.3H9.884a.859.859,0,1,0,0-1.719H4.3a2.581,2.581,0,0,1-2.578-2.578V49H42.285v.172a2.581,2.581,0,0,1-2.578,2.578H33.883a.859.859,0,1,0,0,1.719h5.824a4.3,4.3,0,0,0,4.3-4.3V31.3A4.3,4.3,0,0,0,39.707,27Zm2.578,14.439H7.563a.859.859,0,1,0,0,1.719H42.285v4.125H1.719V31.3A2.581,2.581,0,0,1,4.3,28.718h35.41A2.581,2.581,0,0,1,42.285,31.3Z" transform="translate(0 -26.999)"/>
      </g>
    </g>
    <g id="Group_33" data-name="Group 33" transform="translate(21.143 51.858)">
      <g id="Group_32" data-name="Group 32">
        <path id="Path_31" data-name="Path 31" class="cls-1" d="M246.859,316.237a.859.859,0,0,0-.859.859v9.69a.859.859,0,1,0,1.719,0V317.1A.859.859,0,0,0,246.859,316.237Z" transform="translate(-246 -316.237)"/>
      </g>
    </g>
    <g id="Group_35" data-name="Group 35" transform="translate(21.143 64.643)">
      <g id="Group_34" data-name="Group 34">
        <path id="Path_32" data-name="Path 32" class="cls-1" d="M247.467,465.251a.859.859,0,1,0,.252.608A.865.865,0,0,0,247.467,465.251Z" transform="translate(-246 -464.999)"/>
      </g>
    </g>
    <g id="Group_37" data-name="Group 37" transform="translate(37.644 44.13)">
      <g id="Group_36" data-name="Group 36">
        <path id="Path_33" data-name="Path 33" class="cls-1" d="M439.467,226.571a.859.859,0,1,0,.252.608A.866.866,0,0,0,439.467,226.571Z" transform="translate(-438 -226.319)"/>
      </g>
    </g>
    <g id="Group_39" data-name="Group 39" transform="translate(34.733 44.13)">
      <g id="Group_38" data-name="Group 38">
        <path id="Path_34" data-name="Path 34" class="cls-1" d="M405.6,226.571a.859.859,0,1,0,.252.608A.866.866,0,0,0,405.6,226.571Z" transform="translate(-404.13 -226.319)"/>
      </g>
    </g>
    <g id="Group_41" data-name="Group 41" transform="translate(31.822 44.13)">
      <g id="Group_40" data-name="Group 40">
        <path id="Path_35" data-name="Path 35" class="cls-1" d="M371.717,226.571a.859.859,0,1,0,.252.608A.864.864,0,0,0,371.717,226.571Z" transform="translate(-370.25 -226.319)"/>
      </g>
    </g>
    <g id="Group_43" data-name="Group 43" transform="translate(3.653 41.438)">
      <g id="Group_42" data-name="Group 42" transform="translate(0 0)">
        <path id="Path_36" data-name="Path 36" class="cls-1" d="M43.967,195.251a.859.859,0,1,0,.252.608A.866.866,0,0,0,43.967,195.251Z" transform="translate(-42.5 -194.999)"/>
      </g>
    </g>
    <g id="Group_45" data-name="Group 45" transform="translate(7.3 52.913)">
      <g id="Group_44" data-name="Group 44">
        <path id="Path_37" data-name="Path 37" class="cls-1" d="M92.179,328.51a.859.859,0,0,0-.859.859v.266a12.548,12.548,0,0,1-5.978,10.734.859.859,0,1,0,.905,1.461,14.346,14.346,0,0,0,6.792-12.2v-.266A.859.859,0,0,0,92.179,328.51Z" transform="translate(-84.934 -328.51)"/>
      </g>
    </g>
    <g id="Group_47" data-name="Group 47" transform="translate(28.6 52.913)">
      <g id="Group_46" data-name="Group 46">
        <path id="Path_38" data-name="Path 38" class="cls-1" d="M340.467,340.37a12.548,12.548,0,0,1-5.978-10.734v-.266a.859.859,0,1,0-1.719,0v.266a14.346,14.346,0,0,0,6.792,12.2.859.859,0,1,0,.905-1.461Z" transform="translate(-332.77 -328.511)"/>
      </g>
    </g>
    <g id="Group_49" data-name="Group 49" transform="translate(1.221 55.143)">
      <g id="Group_48" data-name="Group 48">
        <path id="Path_39" data-name="Path 39" class="cls-1" d="M20.36,358.791l-1.142-.66,1.142-.659a.859.859,0,0,0-.859-1.489l-1.142.659v-1.319a.859.859,0,1,0-1.719,0v1.319l-1.142-.659a.859.859,0,0,0-.859,1.489l1.142.659-1.142.659a.859.859,0,1,0,.859,1.489l1.142-.659v1.319a.859.859,0,1,0,1.719,0V359.62l1.142.659a.859.859,0,1,0,.859-1.488Z" transform="translate(-14.208 -354.464)"/>
      </g>
    </g>
  </g>
</svg>
