<svg id="fan_1_" data-name="fan (1)" xmlns="http://www.w3.org/2000/svg" viewBox="0 0 42 42">
  <defs>
    <style>
      .cls-1 {
        fill: #2099c5;
      }
    </style>
  </defs>
  <g id="Group_51" data-name="Group 51" transform="translate(0 22.025)">
    <g id="Group_50" data-name="Group 50">
      <path id="Path_40" data-name="Path 40" class="cls-1" d="M41.385,268.5a.615.615,0,0,0-.615.615v17.028a1.1,1.1,0,0,1-1.1,1.1H2.331a1.1,1.1,0,0,1-1.1-1.1V269.115a.615.615,0,0,0-1.23,0v17.028a2.334,2.334,0,0,0,2.331,2.331H39.669A2.334,2.334,0,0,0,42,286.143V269.115A.615.615,0,0,0,41.385,268.5Z" transform="translate(0 -268.5)"/>
    </g>
  </g>
  <g id="Group_53" data-name="Group 53">
    <g id="Group_52" data-name="Group 52">
      <path id="Path_41" data-name="Path 41" class="cls-1" d="M39.669,0H2.331A2.334,2.334,0,0,0,0,2.331V19.359a.615.615,0,0,0,1.23,0V2.331a1.1,1.1,0,0,1,1.1-1.1H39.669a1.1,1.1,0,0,1,1.1,1.1V19.359a.615.615,0,0,0,1.23,0V2.331A2.334,2.334,0,0,0,39.669,0Z"/>
    </g>
  </g>
  <g id="Group_55" data-name="Group 55" transform="translate(3.095 3.095)">
    <g id="Group_54" data-name="Group 54">
      <path id="Path_42" data-name="Path 42" class="cls-1" d="M68.3,42.976a17.9,17.9,0,1,0,5.244,12.661A17.787,17.787,0,0,0,68.3,42.976ZM55.637,72.311A16.674,16.674,0,1,1,72.311,55.637,16.693,16.693,0,0,1,55.637,72.311Z" transform="translate(-37.732 -37.732)"/>
    </g>
  </g>
  <g id="Group_57" data-name="Group 57" transform="translate(34.837 34.623)">
    <g id="Group_56" data-name="Group 56">
      <path id="Path_43" data-name="Path 43" class="cls-1" d="M427.024,422.074a2.34,2.34,0,1,0,2.34,2.34A2.343,2.343,0,0,0,427.024,422.074Zm0,3.45a1.11,1.11,0,1,1,1.11-1.11A1.111,1.111,0,0,1,427.024,425.524Z" transform="translate(-424.684 -422.074)"/>
    </g>
  </g>
  <g id="Group_59" data-name="Group 59" transform="translate(2.482 34.623)">
    <g id="Group_58" data-name="Group 58">
      <path id="Path_44" data-name="Path 44" class="cls-1" d="M32.594,422.074a2.34,2.34,0,1,0,2.34,2.34A2.343,2.343,0,0,0,32.594,422.074Zm0,3.45a1.11,1.11,0,1,1,1.11-1.11A1.111,1.111,0,0,1,32.594,425.524Z" transform="translate(-30.254 -422.074)"/>
    </g>
  </g>
  <g id="Group_61" data-name="Group 61" transform="translate(2.482 2.174)">
    <g id="Group_60" data-name="Group 60">
      <path id="Path_45" data-name="Path 45" class="cls-1" d="M32.594,26.5a2.34,2.34,0,1,0,2.34,2.34A2.343,2.343,0,0,0,32.594,26.5Zm0,3.45a1.11,1.11,0,1,1,1.11-1.11A1.111,1.111,0,0,1,32.594,29.95Z" transform="translate(-30.254 -26.5)"/>
    </g>
  </g>
  <g id="Group_63" data-name="Group 63" transform="translate(34.837 2.174)">
    <g id="Group_62" data-name="Group 62">
      <path id="Path_46" data-name="Path 46" class="cls-1" d="M427.024,26.5a2.34,2.34,0,1,0,2.34,2.34A2.343,2.343,0,0,0,427.024,26.5Zm0,3.45a1.11,1.11,0,1,1,1.11-1.11A1.111,1.111,0,0,1,427.024,29.95Z" transform="translate(-424.684 -26.5)"/>
    </g>
  </g>
  <g id="Group_65" data-name="Group 65" transform="translate(5.605 5.605)">
    <g id="Group_64" data-name="Group 64">
      <path id="Path_47" data-name="Path 47" class="cls-1" d="M99.093,82.872A1.992,1.992,0,0,0,97.4,81.026a27.5,27.5,0,0,0-4.065-.268c-1.192,0-2.3.055-3.171.117a15.391,15.391,0,0,1,5.473-2.043A1.953,1.953,0,0,0,97.068,77.7a2,2,0,0,0-.106-1.834h0a15.429,15.429,0,0,0-2.973-3.613,1.985,1.985,0,0,0-2.5-.111,34.85,34.85,0,0,0-5.223,5.01,15.4,15.4,0,0,1,2.425-5.315,1.953,1.953,0,0,0,.208-1.81A2,2,0,0,0,87.526,68.8a15.5,15.5,0,0,0-4.657-.452,1.992,1.992,0,0,0-1.846,1.689,34.847,34.847,0,0,0-.151,7.236,15.392,15.392,0,0,1-2.043-5.473,1.986,1.986,0,0,0-2.967-1.321,15.443,15.443,0,0,0-3.612,2.974,1.992,1.992,0,0,0-.111,2.5,34.854,34.854,0,0,0,5.01,5.223,15.394,15.394,0,0,1-5.315-2.425,1.964,1.964,0,0,0-1.1-.339,1.99,1.99,0,0,0-1.93,1.5,15.439,15.439,0,0,0-.452,4.657,1.992,1.992,0,0,0,1.689,1.846,27.5,27.5,0,0,0,4.065.268c1.191,0,2.3-.055,3.171-.117A15.391,15.391,0,0,1,71.8,88.617a1.953,1.953,0,0,0-1.427,1.133,2,2,0,0,0,.106,1.834A15.445,15.445,0,0,0,73.455,95.2a1.985,1.985,0,0,0,2.5.111,34.85,34.85,0,0,0,5.223-5.01,15.394,15.394,0,0,1-2.425,5.315,1.953,1.953,0,0,0-.208,1.81,2,2,0,0,0,1.372,1.222,15.463,15.463,0,0,0,3.8.475c.283,0,.569-.008.852-.023a1.992,1.992,0,0,0,1.846-1.689,34.858,34.858,0,0,0,.151-7.236,15.4,15.4,0,0,1,2.043,5.473,1.986,1.986,0,0,0,2.967,1.321,15.441,15.441,0,0,0,3.612-2.974,1.991,1.991,0,0,0,.111-2.5,34.85,34.85,0,0,0-5.01-5.223,15.394,15.394,0,0,1,5.315,2.425,1.964,1.964,0,0,0,1.1.338,1.99,1.99,0,0,0,1.93-1.5A15.438,15.438,0,0,0,99.093,82.872Zm-6.875-9.74a.764.764,0,0,1,.456-.15.738.738,0,0,1,.494.187A14.208,14.208,0,0,1,95.9,76.494a.764.764,0,0,1,.041.7.728.728,0,0,1-.538.428,16.337,16.337,0,0,0-6.11,2.352,6.774,6.774,0,0,0-2.111-2.008A33.641,33.641,0,0,1,92.218,73.132ZM82.24,70.226a.756.756,0,0,1,.7-.645c.26-.014.524-.022.785-.022a14.231,14.231,0,0,1,3.5.437.763.763,0,0,1,.525.467.728.728,0,0,1-.078.683,16.341,16.341,0,0,0-2.657,5.981l-.105-.018c-.065-.012-.13-.024-.2-.033-.048-.007-.1-.012-.146-.019s-.12-.016-.18-.022-.124-.01-.186-.014-.1-.008-.144-.01Q83.889,77,83.722,77c-.1,0-.207,0-.31.008l-.059,0q-.145.008-.288.022l-.072.008c-.086.009-.172.02-.257.033l-.08.012q-.111.018-.222.04l-.112.023c-.074.016-.147.033-.221.051A33.64,33.64,0,0,1,82.24,70.226ZM74.1,85.461a26.274,26.274,0,0,1-3.88-.254.756.756,0,0,1-.645-.7,14.209,14.209,0,0,1,.416-4.286.761.761,0,0,1,.737-.575.737.737,0,0,1,.414.128,16.341,16.341,0,0,0,5.981,2.657c-.007.035-.012.07-.018.105-.012.065-.024.13-.033.2-.007.048-.012.1-.019.146s-.016.12-.022.18-.01.124-.014.186-.008.1-.01.144q-.008.167-.008.335c0,.1,0,.207.008.31,0,.02,0,.04,0,.059q.008.145.022.288c0,.024.005.048.008.073.009.086.02.171.033.256,0,.027.008.054.013.081q.018.111.039.22c.007.038.015.076.023.114.016.074.032.147.051.22C76.35,85.407,75.267,85.461,74.1,85.461Zm-.975-10.233a.756.756,0,0,1,.037-.949,14.214,14.214,0,0,1,3.325-2.737.756.756,0,0,1,1.13.5,16.336,16.336,0,0,0,2.352,6.11,6.773,6.773,0,0,0-2.008,2.111A33.642,33.642,0,0,1,73.129,75.228Zm2.1,19.089a.763.763,0,0,1-.456.15.739.739,0,0,1-.494-.187,14.215,14.215,0,0,1-2.737-3.325.764.764,0,0,1-.041-.7.728.728,0,0,1,.538-.428,16.337,16.337,0,0,0,6.11-2.352,6.773,6.773,0,0,0,2.111,2.008A33.624,33.624,0,0,1,75.225,94.317ZM85.2,97.222a.756.756,0,0,1-.7.645,14.265,14.265,0,0,1-4.286-.416.763.763,0,0,1-.525-.467.728.728,0,0,1,.078-.683A16.34,16.34,0,0,0,82.43,90.32l.1.018c.066.012.132.024.2.034.049.007.1.013.147.019s.118.016.178.022.126.01.189.014c.047,0,.094.008.141.01q.167.008.335.009c.1,0,.207,0,.31-.008l.059,0q.145-.008.289-.022l.072-.008c.086-.009.172-.02.257-.033l.079-.012q.112-.018.223-.04l.112-.023c.074-.016.148-.033.221-.051A33.645,33.645,0,0,1,85.2,97.222Zm1.475-8.877q-.093.06-.189.116l-.008,0q-.1.056-.193.108l0,0a5.459,5.459,0,0,1-.609.276h0q-.112.043-.226.081l-.015.005c-.068.023-.137.043-.207.063l-.048.014c-.061.017-.122.032-.184.047l-.078.018-.163.034-.105.019-.143.023-.132.017-.124.014c-.054.005-.109.009-.164.012l-.1.007c-.088,0-.177.007-.267.007s-.168,0-.251-.006l-.077,0q-.091-.005-.182-.014l-.076-.007c-.079-.008-.158-.018-.236-.03l-.068-.011-.171-.031-.1-.021-.143-.033-.1-.024a5.436,5.436,0,0,1-.84-.3l0,0A5.546,5.546,0,0,1,79.1,86.687l0-.006q-.06-.093-.115-.188l-.006-.01q-.056-.095-.107-.192v0a5.48,5.48,0,0,1-.277-.609v0q-.043-.113-.081-.227l0-.014c-.023-.069-.044-.138-.063-.208l-.013-.047c-.017-.061-.033-.123-.047-.184l-.018-.077q-.018-.081-.034-.163c-.007-.035-.013-.07-.019-.1s-.016-.1-.023-.144-.012-.088-.017-.132-.01-.083-.014-.124-.009-.109-.012-.164c0-.033-.005-.065-.007-.1,0-.088-.007-.177-.007-.267s0-.168.006-.251c0-.026,0-.051,0-.077q.005-.091.014-.181c0-.026,0-.051.007-.077.008-.079.018-.158.03-.236,0-.023.008-.046.012-.069q.014-.086.031-.17c.006-.033.013-.066.021-.1s.021-.1.033-.142.016-.065.024-.1a5.441,5.441,0,0,1,.3-.84l0,0a5.546,5.546,0,0,1,2.045-2.374l.006,0q.093-.06.188-.115l.01-.006q.1-.056.192-.107h0a5.456,5.456,0,0,1,.608-.276h0q.113-.043.227-.081l.014,0c.069-.023.138-.044.208-.063l.047-.013c.061-.017.123-.033.184-.047l.077-.018.163-.034.1-.019.144-.023.132-.017.124-.014c.054-.005.109-.009.164-.012l.1-.007c.088,0,.177-.007.267-.007s.168,0,.251.006l.077,0q.091.005.181.014l.077.007c.079.008.158.018.236.03l.069.012.17.031.1.021.142.033.1.024a5.439,5.439,0,0,1,.84.3l0,0a5.546,5.546,0,0,1,2.374,2.045l0,.006q.06.093.115.188l.006.01q.055.095.107.192v0a5.475,5.475,0,0,1,.277.609v0c.029.075.055.151.081.227l0,.015c.023.069.043.138.063.207l.013.047c.017.061.032.122.047.184l.018.078q.018.081.034.163c.007.035.013.07.019.105s.016.1.023.144.012.088.017.132.01.083.014.124.009.109.012.164c0,.033.005.065.007.1,0,.088.007.177.007.267s0,.168-.006.251c0,.026,0,.051,0,.077q-.005.091-.014.181c0,.026,0,.051-.007.077-.008.079-.018.158-.03.236,0,.023-.008.046-.012.069q-.014.086-.031.17c-.006.033-.013.066-.021.1s-.021.1-.033.142-.016.065-.024.1a5.439,5.439,0,0,1-.3.84l0,0a5.547,5.547,0,0,1-2.046,2.375Zm7.635,3.875a.756.756,0,0,1-.037.949,14.212,14.212,0,0,1-3.325,2.737.761.761,0,0,1-.389.108.753.753,0,0,1-.741-.606A16.34,16.34,0,0,0,87.47,89.3a6.773,6.773,0,0,0,2.008-2.111A33.627,33.627,0,0,1,94.314,92.221Zm3.135-5a.761.761,0,0,1-.737.575.737.737,0,0,1-.414-.128,16.342,16.342,0,0,0-5.981-2.657c.007-.035.012-.071.018-.106.012-.065.024-.129.033-.195.007-.05.013-.1.019-.149s.016-.118.021-.177.01-.126.014-.189c0-.047.008-.094.01-.141.005-.111.009-.223.009-.335s0-.207-.008-.31c0-.02,0-.04,0-.059q-.008-.145-.022-.288c0-.024-.005-.048-.008-.073-.009-.086-.02-.171-.033-.256,0-.027-.008-.054-.013-.081q-.018-.111-.039-.22c-.007-.038-.015-.076-.023-.114-.016-.074-.032-.147-.051-.22.85-.061,1.932-.115,3.1-.115a26.287,26.287,0,0,1,3.881.254.756.756,0,0,1,.645.7A14.209,14.209,0,0,1,97.449,87.226Z" transform="translate(-68.327 -68.33)"/>
    </g>
  </g>
</svg>
