<svg xmlns="http://www.w3.org/2000/svg" viewBox="0 0 172.982 59.401">
  <defs>
    <style>
      .cls-1, .cls-5 {
        fill: #162055;
      }

      .cls-1 {
        font-size: 31px;
        font-family: AddCityboyNormal, AddCityboy;
      }

      .cls-2 {
        letter-spacing: -0.05em;
      }

      .cls-3 {
        fill: #3262a6;
      }

      .cls-4 {
        fill: #3677b8;
      }
    </style>
  </defs>
  <g id="logo" transform="translate(0 31.74)">
    <g id="Camada_1" data-name="Camada 1" transform="translate(0 -31.74)">
      <text id="Refri" class="cls-1" transform="translate(0 26)"><tspan x="0" y="0">Re</tspan><tspan class="cls-2" y="0">f</tspan><tspan y="0">ri</tspan></text>
      <path id="Path_8" data-name="Path 8" class="cls-3" d="M870.33,94.633l20.036-50.174,8.9-1.2L917.08,94.633h-10.1L892.421,51.822,877.813,94.633Z" transform="translate(-790.384 -36.371)"/>
      <path id="Path_9" data-name="Path 9" class="cls-3" d="M1467.591,50.72H1448.24v50.688h9.247l.171-19.008c7.021-.172,22.781-2.911,22.6-16.782S1467.591,50.72,1467.591,50.72Zm-9.418,25.435V55.514s12.158-1.883,11.986,10.321S1458.172,76.155,1458.172,76.155Z" transform="translate(-1315.208 -43.145)"/>
      <path id="Path_10" data-name="Path 10" class="cls-4" d="M168,319.22a40.709,40.709,0,0,1,13.852,5.556,17.79,17.79,0,0,0,13.928,2.056s-6.241,4.642-15.679-.381C175.838,323.253,170.891,319.524,168,319.22Z" transform="translate(-152.568 -286.982)"/>
      <path id="Path_11" data-name="Path 11" class="cls-5" d="M87.36,295.464s11.3,0,17.809,7.192,17.378,2.036,17.378,2.036L143.87,296s7.363-3.964,15.412,1.859,8.053,13.185,23.375,13.356,26.8-13.7,26.8-13.7,7.687-8.613,15.065-2.833,6.5,29.414,26.371,23.725c0,0-15.754,16.1-29.8-17.3,0,0-3.539-6.876-11.645-.171s-20.035,12.329-20.035,12.329-11.817,5.138-20.293-3.766l-8.476-8.9s-10.1-4.98-17.981-.692c-8.391,2.917-21.234,10.282-29.282,8.91s-13.528-7.363-13.528-7.363S95.579,297.519,87.36,295.464Z" transform="translate(-79.335 -262.888)"/>
      <path id="Path_12" data-name="Path 12" class="cls-4" d="M473.74,383.679s18.152-8.734,29.626-9.133,11.7,5.766,11.7,5.766S509.7,370.9,473.74,383.679Z" transform="translate(-430.223 -337.209)"/>
      <path id="Path_13" data-name="Path 13" class="cls-4" d="M931.12,308.118s14.955,21.824,46.809-6.718C977.929,301.4,951.328,334.248,931.12,308.118Z" transform="translate(-845.59 -270.799)"/>
      <path id="Path_14" data-name="Path 14" class="cls-4" d="M1633.34,357.33s10.96,26.6,22.948,17.354C1656.288,374.684,1640.3,387.245,1633.34,357.33Z" transform="translate(-1483.305 -321.591)"/>
    </g>
  </g>
</svg>
