<svg xmlns="http://www.w3.org/2000/svg" viewBox="0 0 272 82.57">
  <defs>
    <style>
      .cls-1 {
        fill: #fff;
      }
    </style>
  </defs>
  <g id="logo" transform="translate(0 20.907)">
    <g id="Camada_1" data-name="Camada 1" transform="translate(0 -31.74)">
      <path id="Path_58" data-name="Path 58" class="cls-1" d="M32.389-20.531a3.042,3.042,0,0,0-1.249-2.5,4.966,4.966,0,0,0-3.161-.98H4.263q-.441,0-.441.245,0,.147.833.931a2.119,2.119,0,0,1,.833,1.372v.245L0-.637V-.49q0,.441.637.441H10a.868.868,0,0,0,.931-.588L12.3-5.978a.833.833,0,0,1,.882-.588.887.887,0,0,1,.882.539L15.974-.588q.2.539.98.539h9.359q.588,0,.588-.392,0-.1-1.323-3.063T24.206-6.713a9.081,9.081,0,0,0,3.675-1.544,4.914,4.914,0,0,0,2.107-2.67l2.3-8.722A4.055,4.055,0,0,0,32.389-20.531ZM13.818-8.771q-.637,0-.637-.441a.376.376,0,0,0,.049-.147l3.136-11.858q.147-.588.931-.588h3.92q.637,0,.637.441a.2.2,0,0,1-.049.147L18.669-9.359q-.147.588-.931.588ZM60.76-13.965a3.042,3.042,0,0,0-1.25-2.5,4.966,4.966,0,0,0-3.16-.98H39.984a7.374,7.374,0,0,0-4.189,1.3,5.284,5.284,0,0,0-2.377,3.063l-2.3,8.722a2.925,2.925,0,0,0-.147.931A2.977,2.977,0,0,0,32.217-.956,5.053,5.053,0,0,0,35.378,0H53.655q.784,0,3.43-1.764.245-.147.245-.294t-.343-.147h-14.8q-.637,0-.637-.441,0-1.715,1.176-1.715H52.871a7.474,7.474,0,0,0,4.189-1.274,5.41,5.41,0,0,0,2.425-3.087l1.127-4.361A2.775,2.775,0,0,0,60.76-13.965ZM49.539-15.239q.637,0,.637.441,0,.1-2.009,7.644a.826.826,0,0,1-.931.637h-3.92q-.637,0-.637-.49,0-.049,2.009-7.644a.868.868,0,0,1,.931-.588ZM61.936.245a20.814,20.814,0,0,0,1.813,1.96h5.488A7.474,7.474,0,0,0,73.426.931,5.187,5.187,0,0,0,75.8-2.156L79.135-14.6q.147-.588.931-.588h3.92a2.593,2.593,0,0,0,1.421-.441l1.96-1.323q.245-.147.245-.294t-.343-.147H80.654q-.637,0-.637-.441,0-.1.833-3.283a.869.869,0,0,1,.931-.637h6.664a2.593,2.593,0,0,0,1.421-.441,17.689,17.689,0,0,0,2.205-1.568q0-.147-.343-.147H76.146a7.474,7.474,0,0,0-4.19,1.274,5.187,5.187,0,0,0-2.376,3.087l-.441,1.568q-.147.588-.931.588a6.057,6.057,0,0,0-2.45.343q-1.078.686-2.156,1.421-.245.147-.245.294t.343.147h3.92q.637,0,.637.441v.147L64.631-1.029q-.2.686-1.446.858T61.936.245ZM114.954-9.6A.2.2,0,0,1,115-9.751l.833-3.332a2.775,2.775,0,0,0,.147-.882,3.042,3.042,0,0,0-1.25-2.5,4.966,4.966,0,0,0-3.16-.98H87.857q-.49,0-.49.245,0,.147.857.931a2.106,2.106,0,0,1,.858,1.372.545.545,0,0,1-.049.245L85.309-.637V-.49q0,.49.637.49h9.359a.869.869,0,0,0,.931-.637L99.96-14.651q.147-.588.931-.588h3.871q.637,0,.637.441a16.885,16.885,0,0,1-1,3.822,16.246,16.246,0,0,0-1,3.969q0,.49.637.49h9.31a2.44,2.44,0,0,0,1.421-.441l2.009-1.323q.245-.2.245-.343,0-.2-1.029-.319T114.954-9.6Zm2.3,9.114q0,.49.588.49h9.408a2.364,2.364,0,0,0,1.372-.441l2.009-1.323q.245-.147.245-.294,0-.2-1.029-.343t-1.029-.686v-.147l3.626-13.573v-.147q0-.49-.588-.49h-12.1q-.441,0-.441.245,0,.147.857.931a2.106,2.106,0,0,1,.857,1.372.546.546,0,0,1-.049.245L117.257-.637ZM127.743-19.6a7.337,7.337,0,0,0,4.655-1.617,4.6,4.6,0,0,0,2.058-3.626,3.042,3.042,0,0,0-1.249-2.5,4.966,4.966,0,0,0-3.16-.98,7.369,7.369,0,0,0-4.631,1.617,4.627,4.627,0,0,0-2.082,3.675,2.977,2.977,0,0,0,1.249,2.475A5.053,5.053,0,0,0,127.743-19.6Z" transform="translate(0 41)"/>
      <path id="Path_1" data-name="Path 1" class="cls-1" d="M870.33,124.04l31.5-78.895,14-1.885,28,80.78H927.953L905.066,56.723,882.1,124.04Z" transform="translate(-744.621 -32.427)"/>
      <path id="Path_2" data-name="Path 2" class="cls-1" d="M1478.667,50.72H1448.24v79.7h14.541l.269-29.889c11.041-.27,35.821-4.577,35.543-26.389S1478.667,50.72,1478.667,50.72Zm-14.809,39.995V58.258s19.118-2.961,18.848,16.229S1463.858,90.715,1463.858,90.715Z" transform="translate(-1239.059 -38.81)"/>
      <path id="Path_3" data-name="Path 3" class="cls-1" d="M168,319.22a64.011,64.011,0,0,1,21.781,8.736c10.413,6.822,21.9,3.232,21.9,3.232s-9.813,7.3-24.654-.6C180.325,325.562,172.545,319.7,168,319.22Z" transform="translate(-143.734 -268.528)"/>
      <path id="Path_4" data-name="Path 4" class="cls-1" d="M87.36,297.052s17.766,0,28,11.309,27.325,3.2,27.325,3.2L176.217,297.9s11.578-6.232,24.234,2.923,12.663,20.733,36.755,21,42.14-21.542,42.14-21.542,12.087-13.544,23.688-4.454,10.222,46.251,41.467,37.305c0,0-24.773,25.311-46.851-27.2,0,0-5.565-10.813-18.31-.269s-31.5,19.386-31.5,19.386-18.58,8.078-31.909-5.922l-13.327-14s-15.888-7.83-28.274-1.088c-13.194,4.587-33.388,16.167-46.044,14.01s-21.271-11.578-21.271-11.578S100.284,300.283,87.36,297.052Z" transform="translate(-74.742 -245.83)"/>
      <path id="Path_5" data-name="Path 5" class="cls-1" d="M473.74,388.918s28.542-13.733,46.584-14.361,18.4,9.066,18.4,9.066S530.287,368.818,473.74,388.918Z" transform="translate(-405.314 -315.847)"/>
      <path id="Path_6" data-name="Path 6" class="cls-1" d="M931.12,311.963s23.516,34.317,73.6-10.563C1004.723,301.4,962.895,353.051,931.12,311.963Z" transform="translate(-796.631 -253.282)"/>
      <path id="Path_7" data-name="Path 7" class="cls-1" d="M1633.34,357.33s17.235,41.828,36.084,27.287C1669.424,384.617,1644.291,404.369,1633.34,357.33Z" transform="translate(-1397.424 -301.134)"/>
    </g>
  </g>
</svg>
