<svg xmlns="http://www.w3.org/2000/svg" viewBox="0 0 272 93.403">
  <defs>
    <style>
      .cls-1, .cls-3 {
        fill: #fff;
      }

      .cls-1 {
        font-size: 49px;
        font-family: AddCityboyNormal, AddCityboy;
      }

      .cls-2 {
        letter-spacing: -0.05em;
      }
    </style>
  </defs>
  <g id="logo" transform="translate(0 31.74)">
    <g id="Camada_1" data-name="Camada 1" transform="translate(0 -31.74)">
      <text id="Refri" class="cls-1" transform="translate(0 41)"><tspan x="0" y="0">Re</tspan><tspan class="cls-2" y="0">f</tspan><tspan y="0">ri</tspan></text>
      <path id="Path_1" data-name="Path 1" class="cls-3" d="M870.33,124.04l31.5-78.895,14-1.885,28,80.78H927.953L905.066,56.723,882.1,124.04Z" transform="translate(-744.621 -32.427)"/>
      <path id="Path_2" data-name="Path 2" class="cls-3" d="M1478.667,50.72H1448.24v79.7h14.541l.269-29.889c11.041-.27,35.821-4.577,35.543-26.389S1478.667,50.72,1478.667,50.72Zm-14.809,39.995V58.258s19.118-2.961,18.848,16.229S1463.858,90.715,1463.858,90.715Z" transform="translate(-1239.059 -38.81)"/>
      <path id="Path_3" data-name="Path 3" class="cls-3" d="M168,319.22a64.011,64.011,0,0,1,21.781,8.736c10.413,6.822,21.9,3.232,21.9,3.232s-9.813,7.3-24.654-.6C180.325,325.562,172.545,319.7,168,319.22Z" transform="translate(-143.734 -268.528)"/>
      <path id="Path_4" data-name="Path 4" class="cls-3" d="M87.36,297.052s17.766,0,28,11.309,27.325,3.2,27.325,3.2L176.217,297.9s11.578-6.232,24.234,2.923,12.663,20.733,36.755,21,42.14-21.542,42.14-21.542,12.087-13.544,23.688-4.454,10.222,46.251,41.467,37.305c0,0-24.773,25.311-46.851-27.2,0,0-5.565-10.813-18.31-.269s-31.5,19.386-31.5,19.386-18.58,8.078-31.909-5.922l-13.327-14s-15.888-7.83-28.274-1.088c-13.194,4.587-33.388,16.167-46.044,14.01s-21.271-11.578-21.271-11.578S100.284,300.283,87.36,297.052Z" transform="translate(-74.742 -245.83)"/>
      <path id="Path_5" data-name="Path 5" class="cls-3" d="M473.74,388.918s28.542-13.733,46.584-14.361,18.4,9.066,18.4,9.066S530.287,368.818,473.74,388.918Z" transform="translate(-405.314 -315.847)"/>
      <path id="Path_6" data-name="Path 6" class="cls-3" d="M931.12,311.963s23.516,34.317,73.6-10.563C1004.723,301.4,962.895,353.051,931.12,311.963Z" transform="translate(-796.631 -253.282)"/>
      <path id="Path_7" data-name="Path 7" class="cls-3" d="M1633.34,357.33s17.235,41.828,36.084,27.287C1669.424,384.617,1644.291,404.369,1633.34,357.33Z" transform="translate(-1397.424 -301.134)"/>
    </g>
  </g>
</svg>
