<svg xmlns="http://www.w3.org/2000/svg" viewBox="0 0 38.65 38.852">
  <defs>
    <style>
      .cls-1 {
        fill: #2880b7;
      }
    </style>
  </defs>
  <g id="maintenance" transform="translate(-1.326)">
    <g id="Group_23" data-name="Group 23" transform="translate(1.326)">
      <g id="Group_22" data-name="Group 22" transform="translate(0)">
        <path id="Path_25" data-name="Path 25" class="cls-1" d="M38.456,30a5.191,5.191,0,0,0-3.441-1.511l-1.47-1.47A15.408,15.408,0,0,0,35.377,22.6h3.8V15.253h-3.8a15.406,15.406,0,0,0-1.833-4.421l2.69-2.69-5.2-5.2-2.69,2.69A15.412,15.412,0,0,0,23.927,3.8V0H16.579V3.8a15.407,15.407,0,0,0-4.421,1.833l-2.69-2.69-5.2,5.2,2.69,2.69a15.407,15.407,0,0,0-1.833,4.421h-3.8V22.6h3.8a15.407,15.407,0,0,0,1.833,4.421l-2.69,2.69,5.2,5.2,2.69-2.69a15.409,15.409,0,0,0,4.421,1.833v3.8h7.348v-3.8a15.407,15.407,0,0,0,4.421-1.833l1.268,1.268a5.177,5.177,0,0,0,7.133,4.98l.793-.323-3.38-3.38.368-1.357,1.357-.368,3.38,3.38.323-.793A5.173,5.173,0,0,0,38.456,30ZM28.119,31.018a14.291,14.291,0,0,1-4.878,2.022l-.452.1v3.581H17.716V33.135l-.452-.1a14.294,14.294,0,0,1-4.878-2.022L12,30.766,9.467,33.3,5.88,29.712l2.533-2.533-.252-.387A14.292,14.292,0,0,1,6.14,21.915l-.1-.452H2.464V16.39H6.045l.1-.452a14.293,14.293,0,0,1,2.022-4.878l.252-.387L5.88,8.141,9.468,4.554,12,7.087l.387-.252a14.29,14.29,0,0,1,4.878-2.022l.452-.1V1.138H22.79V4.719l.452.1a14.292,14.292,0,0,1,4.878,2.022l.387.252,2.533-2.533,3.587,3.587-2.533,2.533.252.387a14.293,14.293,0,0,1,2.022,4.878l.1.452h3.581v5.073H34.461l-.1.452a14.29,14.29,0,0,1-2.022,4.878l-.158.242L27.448,22.3l-.5-.5a7.207,7.207,0,0,0,.587-2.868,7.282,7.282,0,1,0-7.282,7.282,7.207,7.207,0,0,0,2.859-.583l5.163,5.163.077.077ZM24.473,15.632A5.173,5.173,0,0,0,18.852,14.5l-.793.323,3.38,3.38-.368,1.357-1.357.368-3.38-3.38-.323.793a5.182,5.182,0,0,0,5.845,7.032l.376.376a6.139,6.139,0,1,1,3.837-3.83l-.259-.259A5.217,5.217,0,0,0,24.473,15.632ZM38.784,34.325l-2.558-2.558-2.623.711L32.892,35.1l2.558,2.558a4.044,4.044,0,0,1-4.678-4.411c0-.046.01-.093.016-.139,0-.023.006-.046.01-.069q.016-.1.036-.2l.01-.049c.015-.07.032-.139.051-.207l.01-.034q.028-.1.061-.2a6.673,6.673,0,0,1,1.148-1.675l-.8-.8A7.031,7.031,0,0,0,30.3,31.2l-3.74-3.74-3.211-3.212h0L22.2,23.107l-.319.087a4.045,4.045,0,0,1-5.065-4.556L19.375,21.2,22,20.485l.711-2.623L20.151,15.3a4.047,4.047,0,0,1,4.477,5.326l-.1.285a4.947,4.947,0,0,1-.744,1.009l.8.8a5.659,5.659,0,0,0,.742-.941L33.4,29.856l.319-.087q.131-.036.262-.063l.047-.009.084-.016.072-.011.061-.009.069-.008.064-.008.049,0,.087-.007h.013a4.044,4.044,0,0,1,4.258,4.692Z" transform="translate(-1.326)"/>
        <rect id="Rectangle_17" data-name="Rectangle 17" class="cls-1" width="1.17" height="1.138" transform="translate(24.042 24.505) rotate(-135)"/>
        <rect id="Rectangle_18" data-name="Rectangle 18" class="cls-1" width="3.835" height="1.138" transform="translate(27.745 28.209) rotate(-135)"/>
        <path id="Path_26" data-name="Path 26" class="cls-1" d="M287.578,376.907l.305,1.1a11.478,11.478,0,0,0,1.4-.491l-.445-1.047A10.328,10.328,0,0,1,287.578,376.907Z" transform="translate(-265.857 -347.898)"/>
        <path id="Path_27" data-name="Path 27" class="cls-1" d="M110.447,237.027a10.4,10.4,0,0,1-10.237-12.147l-1.121-.192a11.533,11.533,0,0,0,11.358,13.477c.373,0,.75-.018,1.12-.054l-.109-1.132C111.124,237.011,110.784,237.027,110.447,237.027Z" transform="translate(-91.517 -207.638)"/>
        <path id="Path_28" data-name="Path 28" class="cls-1" d="M135.3,141.59l-.787-.821a11.64,11.64,0,0,0-.921.992l.878.724A10.462,10.462,0,0,1,135.3,141.59Z" transform="translate(-123.559 -130.087)"/>
        <path id="Path_29" data-name="Path 29" class="cls-1" d="M166.154,99.7a10.355,10.355,0,0,1,3.552.623l.389-1.069a11.542,11.542,0,0,0-10.89,1.639l.687.907A10.293,10.293,0,0,1,166.154,99.7Z" transform="translate(-147.225 -91.085)"/>
      </g>
    </g>
  </g>
</svg>
