<svg xmlns="http://www.w3.org/2000/svg" viewBox="0 0 172.982 52.512">
  <defs>
    <style>
      .cls-1 {
        fill: #162055;
      }

      .cls-2 {
        fill: #3262a6;
      }

      .cls-3 {
        fill: #3677b8;
      }
    </style>
  </defs>
  <g id="Group_132" data-name="Group 132" transform="translate(-1133.131 -670.758)">
    <g id="logo" transform="translate(1133.131 695.608)">
      <g id="Camada_1" data-name="Camada 1" transform="translate(0 -31.74)">
        <path id="Path_57" data-name="Path 57" class="cls-1" d="M20.491-12.989A1.925,1.925,0,0,0,19.7-14.57a3.142,3.142,0,0,0-2-.62H2.7q-.279,0-.279.155,0,.093.527.589a1.34,1.34,0,0,1,.527.868v.155L0-.4V-.31q0,.279.4.279H6.324A.549.549,0,0,0,6.913-.4l.868-3.379a.527.527,0,0,1,.558-.372.561.561,0,0,1,.558.341L10.106-.372q.124.341.62.341h5.921q.372,0,.372-.248,0-.062-.837-1.938t-.868-2.03a5.745,5.745,0,0,0,2.325-.977,3.109,3.109,0,0,0,1.333-1.689l1.457-5.518A2.565,2.565,0,0,0,20.491-12.989ZM8.742-5.549q-.4,0-.4-.279a.238.238,0,0,0,.031-.093l1.984-7.5q.093-.372.589-.372h2.48q.4,0,.4.279a.126.126,0,0,1-.031.093l-1.984,7.5q-.093.372-.589.372Zm29.7-3.286a1.925,1.925,0,0,0-.791-1.581,3.142,3.142,0,0,0-2-.62H25.3a4.665,4.665,0,0,0-2.651.822,3.343,3.343,0,0,0-1.5,1.938L19.685-2.759a1.85,1.85,0,0,0-.093.589A1.883,1.883,0,0,0,20.382-.6a3.2,3.2,0,0,0,2,.6H33.945a5.963,5.963,0,0,0,2.17-1.116q.155-.093.155-.186T36.053-1.4H26.691q-.4,0-.4-.279,0-1.085.744-1.085h6.417A4.728,4.728,0,0,0,36.1-3.565a3.423,3.423,0,0,0,1.534-1.953l.713-2.759A1.755,1.755,0,0,0,38.44-8.835Zm-7.1-.806q.4,0,.4.279,0,.062-1.271,4.836a.523.523,0,0,1-.589.4H27.4q-.4,0-.4-.31,0-.031,1.271-4.836a.549.549,0,0,1,.589-.372Zm7.843,9.8A13.168,13.168,0,0,0,40.331,1.4H43.8A4.728,4.728,0,0,0,46.453.589a3.281,3.281,0,0,0,1.5-1.953l2.108-7.874q.093-.372.589-.372h2.48a1.64,1.64,0,0,0,.9-.279l1.24-.837q.155-.093.155-.186t-.217-.093H51.026q-.4,0-.4-.279,0-.062.527-2.077a.55.55,0,0,1,.589-.4h4.216a1.64,1.64,0,0,0,.9-.279,11.191,11.191,0,0,0,1.4-.992q0-.093-.217-.093H48.174a4.728,4.728,0,0,0-2.65.806,3.281,3.281,0,0,0-1.5,1.953l-.279.992q-.093.372-.589.372a3.832,3.832,0,0,0-1.55.217q-.682.434-1.364.9-.155.093-.155.186t.217.093h2.48q.4,0,.4.279v.093L40.889-.651q-.124.434-.915.542T39.184.155ZM72.726-6.076a.126.126,0,0,1,.031-.093l.527-2.108a1.755,1.755,0,0,0,.093-.558,1.925,1.925,0,0,0-.79-1.581,3.142,3.142,0,0,0-2-.62h-15q-.31,0-.31.155,0,.093.543.589a1.333,1.333,0,0,1,.542.868.345.345,0,0,1-.031.155L53.971-.4V-.31q0,.31.4.31H60.3a.55.55,0,0,0,.589-.4L63.24-9.269q.093-.372.589-.372h2.449q.4,0,.4.279a10.682,10.682,0,0,1-.635,2.418,10.278,10.278,0,0,0-.635,2.511q0,.31.4.31H71.7a1.543,1.543,0,0,0,.9-.279l1.271-.837q.155-.124.155-.217,0-.124-.651-.2T72.726-6.076ZM74.183-.31q0,.31.372.31h5.952a1.5,1.5,0,0,0,.868-.279l1.271-.837q.155-.093.155-.186,0-.124-.651-.217T81.5-1.953v-.093l2.294-8.587v-.093q0-.31-.372-.31H75.764q-.279,0-.279.155,0,.093.542.589a1.333,1.333,0,0,1,.543.868.345.345,0,0,1-.031.155L74.183-.4ZM80.817-12.4a4.642,4.642,0,0,0,2.945-1.023,2.913,2.913,0,0,0,1.3-2.294,1.925,1.925,0,0,0-.79-1.581,3.142,3.142,0,0,0-2-.62A4.662,4.662,0,0,0,79.344-16.9a2.927,2.927,0,0,0-1.317,2.325A1.883,1.883,0,0,0,78.817-13,3.2,3.2,0,0,0,80.817-12.4Z" transform="translate(0 26)"/>
        <path id="Path_8" data-name="Path 8" class="cls-2" d="M870.33,94.633l20.036-50.174,8.9-1.2L917.08,94.633h-10.1L892.421,51.822,877.813,94.633Z" transform="translate(-790.384 -36.371)"/>
        <path id="Path_9" data-name="Path 9" class="cls-2" d="M1467.591,50.72H1448.24v50.688h9.247l.171-19.008c7.021-.172,22.781-2.911,22.6-16.782S1467.591,50.72,1467.591,50.72Zm-9.418,25.435V55.514s12.158-1.883,11.986,10.321S1458.172,76.155,1458.172,76.155Z" transform="translate(-1315.208 -43.145)"/>
        <path id="Path_10" data-name="Path 10" class="cls-3" d="M168,319.22a40.709,40.709,0,0,1,13.852,5.556,17.79,17.79,0,0,0,13.928,2.056s-6.241,4.642-15.679-.381C175.838,323.253,170.891,319.524,168,319.22Z" transform="translate(-152.568 -286.982)"/>
        <path id="Path_11" data-name="Path 11" class="cls-1" d="M87.36,295.464s11.3,0,17.809,7.192,17.378,2.036,17.378,2.036L143.87,296s7.363-3.964,15.412,1.859,8.053,13.185,23.375,13.356,26.8-13.7,26.8-13.7,7.687-8.613,15.065-2.833,6.5,29.414,26.371,23.725c0,0-15.754,16.1-29.8-17.3,0,0-3.539-6.876-11.645-.171s-20.035,12.329-20.035,12.329-11.817,5.138-20.293-3.766l-8.476-8.9s-10.1-4.98-17.981-.692c-8.391,2.917-21.234,10.282-29.282,8.91s-13.528-7.363-13.528-7.363S95.579,297.519,87.36,295.464Z" transform="translate(-79.335 -262.888)"/>
        <path id="Path_12" data-name="Path 12" class="cls-3" d="M473.74,383.679s18.152-8.734,29.626-9.133,11.7,5.766,11.7,5.766S509.7,370.9,473.74,383.679Z" transform="translate(-430.223 -337.209)"/>
        <path id="Path_13" data-name="Path 13" class="cls-3" d="M931.12,308.118s14.955,21.824,46.809-6.718C977.929,301.4,951.328,334.248,931.12,308.118Z" transform="translate(-845.59 -270.799)"/>
        <path id="Path_14" data-name="Path 14" class="cls-3" d="M1633.34,357.33s10.96,26.6,22.948,17.354C1656.288,374.684,1640.3,387.245,1633.34,357.33Z" transform="translate(-1483.305 -321.591)"/>
      </g>
    </g>
  </g>
</svg>
